# xmcd
#
# Track frame offsets: 
#        150
#        14984
#        29918
#        42388
#        57633
#        73016
#        90078
#        105172
#        120134
#        133121
#        147413
#
# Disc length: 2173 seconds
#
# Revision: 0
# Processed by: cddbd v1.5.2PL0 Copyright (c) Steve Scherf et al.
# Submitted via: ExactAudioCopy v0.99pb5
#
DISCID=9c087b0b
DTITLE=Sara Kroos - Boheems
DYEAR=2009
DGENRE=Pop
TTITLE0=Zuidelijke zon
TTITLE1=Hier vandaan
TTITLE2=Iedereen kent die vrouw
TTITLE3=Eiland in de stad
TTITLE4=Nachtkaravaan
TTITLE5=Stilstand
TTITLE6=Laatste ronde
TTITLE7=Vederlicht
TTITLE8=Een nacht te lang gewacht
TTITLE9=Het volle leven
TTITLE10=Van voor af aan
EXTD=
EXTT0=
EXTT1=
EXTT2=
EXTT3=
EXTT4=
EXTT5=
EXTT6=
EXTT7=
EXTT8=
EXTT9=
EXTT10=
PLAYORDER=
